<svg xmlns="http://www.w3.org/2000/svg" viewBox="0 0 1200 720">
  <defs>
    <radialGradient id="background" cx="50%" cy="28%" r="82%">
      <stop offset="0%" stop-color="#102514"/>
      <stop offset="52%" stop-color="#061109"/>
      <stop offset="100%" stop-color="#020403"/>
    </radialGradient>
    <radialGradient id="pipeDepth" cx="50%" cy="30%" r="78%">
      <stop offset="0%" stop-color="#12371b" stop-opacity="0.78"/>
      <stop offset="70%" stop-color="#06140a" stop-opacity="0.72"/>
      <stop offset="100%" stop-color="#020403" stop-opacity="0.95"/>
    </radialGradient>
    <filter id="greenGlow" x="-30%" y="-30%" width="160%" height="160%">
      <feGaussianBlur stdDeviation="2.4" result="blur"/>
      <feMerge>
        <feMergeNode in="blur"/>
        <feMergeNode in="SourceGraphic"/>
      </feMerge>
    </filter>
    <filter id="redGlow" x="-60%" y="-60%" width="220%" height="220%">
      <feGaussianBlur stdDeviation="4" result="blur"/>
      <feMerge>
        <feMergeNode in="blur"/>
        <feMergeNode in="SourceGraphic"/>
      </feMerge>
    </filter>
    <radialGradient id="marble" cx="34%" cy="28%" r="72%">
      <stop offset="0%" stop-color="#ffffff"/>
      <stop offset="34%" stop-color="#cfefff"/>
      <stop offset="64%" stop-color="#60b8e8"/>
      <stop offset="100%" stop-color="#1f4770"/>
    </radialGradient>
  </defs>

  <rect width="1200" height="720" fill="url(#background)"/>
  <path d="M 0 720 L 0 362 C 120 314 252 207 426 111 C 506 67 564 58 600 62 C 636 58 694 67 774 111 C 948 207 1080 314 1200 362 L 1200 720 Z" fill="url(#pipeDepth)"/>

  <g filter="url(#greenGlow)" fill="none" stroke-linecap="round" stroke-linejoin="round">
    <g stroke="#0cff66" stroke-width="5.2" opacity="0.98">
      <path d="M -66 724 C 64 462 251 208 452 102 C 514 69 566 60 600 62"/>
      <path d="M 1266 724 C 1136 462 949 208 748 102 C 686 69 634 60 600 62"/>
      <path d="M 10 734 C 185 596 349 321 514 108 C 555 72 582 62 600 62"/>
      <path d="M 1190 734 C 1015 596 851 321 686 108 C 645 72 618 62 600 62"/>
    </g>

    <g stroke="#0cff66" stroke-width="2.4" opacity="0.72">
      <path d="M 0 390 C 124 342 268 226 436 124"/>
      <path d="M 0 462 C 139 405 296 272 464 142"/>
      <path d="M 0 560 C 160 494 326 347 496 168"/>
      <path d="M 1200 390 C 1076 342 932 226 764 124"/>
      <path d="M 1200 462 C 1061 405 904 272 736 142"/>
      <path d="M 1200 560 C 1040 494 874 347 704 168"/>
    </g>

    <g stroke="#13ff6d" stroke-width="2.2" opacity="0.82">
      <path d="M 54 720 C 181 552 342 254 506 102"/>
      <path d="M 156 720 C 260 548 395 260 532 119"/>
      <path d="M 286 720 C 367 555 461 284 558 141"/>
      <path d="M 438 720 C 486 562 548 312 582 168"/>
      <path d="M 600 720 C 600 555 600 326 600 190"/>
      <path d="M 762 720 C 714 562 652 312 618 168"/>
      <path d="M 914 720 C 833 555 739 284 642 141"/>
      <path d="M 1044 720 C 940 548 805 260 668 119"/>
      <path d="M 1146 720 C 1019 552 858 254 694 102"/>
    </g>

    <g stroke="#29ff7a" stroke-width="2.4" opacity="0.9">
      <path d="M 454 104 C 500 127 551 137 600 138 C 649 137 700 127 746 104"/>
      <path d="M 422 128 C 477 160 540 174 600 175 C 660 174 723 160 778 128"/>
      <path d="M 386 166 C 451 209 528 227 600 228 C 672 227 749 209 814 166"/>
      <path d="M 342 223 C 423 279 515 304 600 306 C 685 304 777 279 858 223"/>
      <path d="M 288 307 C 391 382 501 416 600 418 C 699 416 809 382 912 307"/>
      <path d="M 222 422 C 351 521 487 569 600 571 C 713 569 849 521 978 422"/>
      <path d="M 140 584 C 305 714 476 731 600 733 C 724 731 895 714 1060 584"/>
    </g>

    <g stroke="#7dff9f" stroke-width="1.2" opacity="0.54">
      <path d="M 434 116 C 489 145 545 158 600 159 C 655 158 711 145 766 116"/>
      <path d="M 402 147 C 464 184 533 201 600 202 C 667 201 736 184 798 147"/>
      <path d="M 366 194 C 438 245 523 268 600 270 C 677 268 762 245 834 194"/>
      <path d="M 318 262 C 407 328 510 358 600 360 C 690 358 793 328 882 262"/>
      <path d="M 260 360 C 369 444 497 485 600 487 C 703 485 831 444 940 360"/>
      <path d="M 188 500 C 330 614 483 678 600 680 C 717 678 870 614 1012 500"/>
    </g>
  </g>

  <g filter="url(#redGlow)">
    <ellipse cx="600" cy="93" rx="31" ry="8" fill="none" stroke="#ff1f2f" stroke-width="5"/>
    <ellipse cx="600" cy="93" rx="18" ry="5" fill="none" stroke="#ff1f2f" stroke-width="4"/>
    <ellipse cx="600" cy="93" rx="6" ry="2" fill="#ff1f2f"/>
  </g>

  <g opacity="0.96">
    <path d="M 604 708 C 591 628 561 552 532 487 C 503 419 501 358 533 303 C 550 274 574 250 593 232" fill="none" stroke="#bfffd0" stroke-width="2.6" stroke-linecap="round" opacity="0.5"/>
    <path d="M 600 692 C 584 605 549 527 521 458 C 494 392 506 329 545 282" fill="none" stroke="#dfffe7" stroke-width="1.3" stroke-linecap="round" opacity="0.46"/>
    <ellipse cx="593" cy="250" rx="21" ry="7" fill="#020403" opacity="0.52"/>
    <circle cx="592" cy="232" r="13" fill="url(#marble)" stroke="#d8fbff" stroke-width="1.8"/>
    <path d="M 584 225 C 592 217 604 219 608 229" fill="none" stroke="#ffffff" stroke-width="2.8" stroke-linecap="round" opacity="0.82"/>
    <path d="M 583 237 C 591 233 601 235 606 242" fill="none" stroke="#1f4770" stroke-width="2.2" stroke-linecap="round" opacity="0.68"/>
  </g>
</svg>
